<?xml version="1.0" encoding="iso-8859-1"?>
<svg version="1.1" id="Capa_1" xmlns="http://www.w3.org/2000/svg" xmlns:xlink="http://www.w3.org/1999/xlink" x="0px" y="0px"
	 viewBox="0 0 512 512" style="enable-background:new 0 0 512 512;" xml:space="preserve">
<g>
	<g>
		<path d="M376.003,210.994h-8.134L390.545,51.36c3.509-24.561-13.615-47.4-38.203-50.916c-24.58-3.458-47.402,13.671-50.884,38.188
			l-15.457,108.715L270.545,38.635c-3.454-24.326-26.233-41.464-50.768-38.207l-0.148,0.021
			c-24.556,3.511-41.681,26.351-38.174,50.895l14.12,99.659c-20.537,0.191-37.823,14.205-42.992,33.171
			c-5.136-2.045-10.729-3.181-16.586-3.181c-24.813,0-45.001,20.187-45.001,45.001c0,11.31,0,80.758,0,90.003
			c0,26.394,6.049,51.617,17.979,74.971c10.219,20.004,24.659,37.957,42.022,52.312v53.72c0,8.284,6.716,15,15,15h180.004
			c8.284,0,15-6.716,15-15v-53.72c17.361-14.355,31.803-32.308,42.022-52.312c11.931-23.354,17.979-48.578,17.979-74.971v-60.001
			C421.004,231.181,400.817,210.994,376.003,210.994z M331.161,42.851c1.157-8.159,8.779-13.854,16.966-12.704
			c8.183,1.17,13.888,8.783,12.717,16.982l-23.277,163.865h-21.565c-3.037,0-6.003,0.307-8.873,0.883L331.161,42.851z
			 M180.999,225.994v-30.001c0-8.271,6.729-15,15-15c8.271,0,15,6.729,15,15v60.001c0,8.271-6.729,15-15,15c-8.271,0-15-6.729-15-15
			V225.994z M120.998,225.994c0-8.271,6.728-15,15-15c8.271,0,15,6.729,15,15v30.001c0,8.271-6.729,15-15,15
			c-8.271,0-15-6.729-15-15V225.994z M391.003,315.996c0,42.866-19.686,82.238-54.01,108.019c-3.771,2.833-5.991,7.276-5.991,11.994
			v45.99H180.999v-45.99c0-4.718-2.22-9.16-5.991-11.994c-34.324-25.781-54.01-65.153-54.01-108.019v-17.58
			c4.695,1.665,9.741,2.58,15,2.58c11.517,0,22.032-4.354,30.001-11.495c7.968,7.141,18.483,11.495,30.001,11.495
			c24.813,0,45.001-20.187,45.001-45.001v-60.001c0-12.441-5.077-23.719-13.265-31.873L211.157,47.118
			c-1.167-8.163,4.502-15.755,12.646-16.96c8.394-1.075,15.873,4.486,17.039,12.696l30.003,211.015
			c0.102,0.712,0.153,1.435,0.154,2.147h0.002c0.009,19.695,12.738,36.474,30.402,42.549c-18.748,20.41-30.402,48.483-30.402,77.432
			c0,8.284,6.716,15,15,15c8.284,0,15-6.716,15-15c0-33.172,21.495-65.783,50-75.858c6.888-2.435,11.021-9.478,9.785-16.679
			c-1.235-7.2-7.479-12.464-14.784-12.464h-30.001c-8.271,0-15-6.729-15-15c0-8.271,6.729-15,15-15h60.001c8.271,0,15,6.729,15,15
			V315.996z"/>
	</g>
</g>
</svg>
