<?xml version="1.0" encoding="iso-8859-1"?>
<!DOCTYPE svg PUBLIC "-//W3C//DTD SVG 1.1//EN" "http://www.w3.org/Graphics/SVG/1.1/DTD/svg11.dtd">
<svg version="1.1" id="Capa_1" xmlns="http://www.w3.org/2000/svg" xmlns:xlink="http://www.w3.org/1999/xlink" x="0px" y="0px"
	 viewBox="0 0 353.032 353.032" style="enable-background:new 0 0 353.032 353.032;" xml:space="preserve">
<g>
	<path d="M250.858,22.446l-1.088-0.209c-7.093-1.369-14.297,0.11-20.28,4.161c-5.983,4.05-10.031,10.188-11.385,17.214L209.31,86.94
		V36.842c0-14.915-12.134-27.049-27.049-27.049s-27.049,12.134-27.049,27.049v56.151l-8.331-37.394
		c-1.387-7.049-5.424-13.146-11.377-17.176c-5.982-4.05-13.185-5.527-20.282-4.16l-0.507,0.098
		c-14.509,2.795-23.983,16.403-21.568,30.98c0.014,0.078,0.027,0.155,0.043,0.232l14.439,72.035
		c-8.023-1.864-16.79-0.216-23.75,5.262c-7.469,5.878-11.14,14.813-10.653,23.652c-0.038,0.292-0.063,0.588-0.063,0.891v68.538
		c0,28.926,13.366,54.785,34.242,71.738v38.343c0,3.866,3.134,7,7,7h102.294c3.866,0,7-3.134,7-7v-38.247
		c2.696-2.191,5.29-4.541,7.762-7.057c17.497-17.806,26.892-41.381,26.454-66.382c-0.811-46.261,1.902-92.969,8.061-138.823
		l6.555-42.786c0.007-0.042,0.013-0.085,0.019-0.128C274.457,38.406,264.929,25.157,250.858,22.446z M92.536,153.871
		c2.577-2.028,5.647-3.011,8.697-3.011c4.173,0,8.307,1.841,11.082,5.367l17.874,22.708c2.327,2.957,3.363,6.642,2.919,10.377
		c-0.445,3.736-2.318,7.075-5.275,9.401c-6.102,4.804-14.974,3.748-19.779-2.356l-17.873-22.708
		C85.377,167.548,86.434,158.675,92.536,153.871z M209.698,339.032h-88.294v-21.941c13.125,7.169,28.168,11.249,44.147,11.249
		c15.702,0,30.772-3.869,44.146-11.156V339.032z M221.475,290.915c-14.844,15.105-34.704,23.425-55.923,23.425
		c-43.225,0-78.39-35.165-78.39-78.389v-43.5l9.892,12.566c5.534,7.031,13.776,10.703,22.098,10.703
		c6.081,0,12.204-1.961,17.341-6.005c0.717-0.564,1.4-1.159,2.052-1.781c1.172,10.438,8.117,19.834,18.659,23.589l41.947,14.941
		c0.776,0.276,1.569,0.408,2.349,0.408c2.877,0,5.573-1.788,6.594-4.653c1.298-3.642-0.604-7.646-4.245-8.943L161.9,218.335
		c-7.452-2.654-11.355-10.877-8.702-18.33c2.655-7.452,10.88-11.355,18.331-8.702l71.653,25.522c0.196,0.07,0.395,0.126,0.593,0.178
		c-0.009,5.867,0.038,11.731,0.141,17.587C244.288,255.807,236.317,275.81,221.475,290.915z M258.68,50.689l-6.553,42.777
		c-0.007,0.042-0.013,0.085-0.019,0.128c-4.824,35.898-7.559,72.31-8.186,108.634l-67.696-24.113
		c-10.465-3.726-21.693-0.905-29.2,6.322c-0.58-5.127-2.565-10.006-5.837-14.162l-17.086-21.707l-17.162-85.62
		c-1.103-6.993,3.457-13.5,10.424-14.841l0.507-0.098c3.423-0.659,6.898,0.054,9.784,2.007c2.887,1.954,4.839,4.915,5.498,8.337
		c0.013,0.066,0.027,0.132,0.042,0.198l22.184,99.573c0.774,3.484,4.039,5.819,7.598,5.436c3.548-0.391,6.234-3.388,6.234-6.958
		V36.842c0-7.195,5.854-13.049,13.049-13.049s13.049,5.854,13.049,13.049v119.762c0,3.595,2.724,6.605,6.3,6.965
		c3.586,0.366,6.846-2.049,7.561-5.572l22.67-111.667c1.36-7.066,8.218-11.711,15.28-10.345l1.088,0.209
		C254.978,37.498,259.569,43.858,258.68,50.689z"/>

</g>
<g>
</g>
<g>
</g>
<g>
</g>
<g>
</g>
<g>
</g>
<g>
</g>
<g>
</g>
<g>
</g>
<g>
</g>
<g>
</g>
<g>
</g>
<g>
</g>
<g>
</g>
<g>
</g>
<g>
</g>
</svg>
